<svg xmlns="http://www.w3.org/2000/svg" viewBox="0 0 64 64" role="img" aria-label="O Rebanho de Jesus Cristo">
  <defs>
    <linearGradient id="flame" x1="0" y1="1" x2="0" y2="0">
      <stop offset="0" stop-color="#E24329"/>
      <stop offset="0.55" stop-color="#EF8A2B"/>
      <stop offset="1" stop-color="#F6C136"/>
    </linearGradient>
  </defs>
  <rect width="64" height="64" rx="14" fill="#F7F4EC"/>
  <circle cx="32" cy="32" r="24" fill="none" stroke="#2FA24B" stroke-width="3.2"/>
  <circle cx="32" cy="32" r="19.5" fill="none" stroke="#2FA24B" stroke-width="1.4"/>
  <!-- chama -->
  <path d="M32 17c5 5 8 9 8 14a8 8 0 1 1-16 0c0-3 1.6-5.4 3.4-7.6-.3 2.3.5 3.8 1.6 4.6-.2-4 1.1-8 3-11z" fill="url(#flame)"/>
  <!-- cajado do pastor -->
  <path d="M30 44c0-8 0-14 0-18a4 4 0 1 1 8 0" fill="none" stroke="#8A5A2B" stroke-width="2.6" stroke-linecap="round"/>
</svg>
